<svg xmlns="http://www.w3.org/2000/svg" viewBox="0 0 119.27 73.64"><defs><style>.cls-1{fill:#262424;}.cls-2{fill:#fff;}.cls-3{fill:#8dc751;}.cls-4{fill:#dd5a6f;}.cls-5{fill:#f37035;}.cls-6{fill:#764299;}</style></defs><title>Toke</title><g id="Camada_2" data-name="Camada 2"><g id="Layer_1" data-name="Layer 1"><path class="cls-1" d="M13.49,69.47c0-1.76.83-2.64,2.48-2.64A3.6,3.6,0,0,1,17,67c.34.1.51.22.51.37a.85.85,0,0,1-.18.43c-.11.18-.22.26-.31.26L16.89,68a2.22,2.22,0,0,0-.94-.18c-.86,0-1.28.56-1.28,1.67s.42,1.68,1.27,1.68a2.4,2.4,0,0,0,1-.22.75.75,0,0,1,.2-.07c.1,0,.2.08.29.25a.83.83,0,0,1,.14.39c0,.2-.18.35-.55.46a3.75,3.75,0,0,1-1.1.16,2.4,2.4,0,0,1-1.85-.64A2.92,2.92,0,0,1,13.49,69.47Z"/><path class="cls-1" d="M19.24,71.92a.87.87,0,0,1,0-.13L20.91,67c0-.11.18-.16.42-.16h.39c.24,0,.38,0,.42.16l1.64,4.76a.83.83,0,0,1,0,.13c0,.11-.12.17-.37.17H23.1c-.24,0-.38,0-.42-.16l-.29-.9H20.63l-.3.9c0,.11-.14.16-.34.16H19.7C19.39,72.09,19.24,72,19.24,71.92ZM21,70.05h1.12l-.43-1.32-.11-.47h0a3,3,0,0,1-.11.47Z"/><path class="cls-1" d="M25.8,71.78V67.11c0-.16.15-.24.44-.24h.26c.3,0,.44.08.44.24v4H28.6c.15,0,.22.13.22.37v.23c0,.25-.07.37-.22.37H26.09A.26.26,0,0,1,25.8,71.78Z"/><path class="cls-1" d="M31.93,73a.28.28,0,0,1,.15-.08,1.3,1.3,0,0,1,.29.08,1.29,1.29,0,0,0,.4.08c.11,0,.17,0,.17-.13s-.07-.12-.2-.18-.19-.11-.19-.17a2.32,2.32,0,0,1,.14-.52,2,2,0,0,1-1.5-.75,3.05,3.05,0,0,1-.49-1.88c0-1.76.83-2.64,2.48-2.64a3.6,3.6,0,0,1,1,.15c.34.1.51.22.51.37a.85.85,0,0,1-.18.43c-.11.18-.22.26-.3.26L34.1,68a2.22,2.22,0,0,0-.94-.18c-.85,0-1.28.56-1.28,1.67s.42,1.68,1.27,1.68a2.4,2.4,0,0,0,1-.22.75.75,0,0,1,.2-.07c.1,0,.2.08.29.25a.83.83,0,0,1,.14.39c0,.2-.17.35-.53.46a4,4,0,0,1-1.09.16l0,.2c.38.08.58.27.58.57,0,.49-.3.74-.89.74a2.39,2.39,0,0,1-.66-.1c-.21-.08-.31-.16-.31-.27A.37.37,0,0,1,31.93,73Z"/><path class="cls-1" d="M36.46,71.92a.48.48,0,0,1,0-.13L38.12,67c0-.11.18-.16.42-.16h.39c.24,0,.38,0,.42.16L41,71.79a.83.83,0,0,1,0,.13c0,.11-.12.17-.37.17h-.33c-.24,0-.38,0-.41-.16l-.3-.9H37.84l-.29.9c0,.11-.15.16-.34.16h-.3C36.6,72.09,36.46,72,36.46,71.92Zm1.7-1.87h1.12l-.42-1.32-.12-.47h0a3,3,0,0,1-.11.47Z"/><path class="cls-1" d="M43,71.78V67.19a.27.27,0,0,1,.3-.3H45a2.27,2.27,0,0,1,1.77.67,3.33,3.33,0,0,1,0,3.84,2.27,2.27,0,0,1-1.77.67H43.31A.26.26,0,0,1,43,71.78Zm1.15-.68H45a1,1,0,0,0,.9-.41,2.06,2.06,0,0,0,.31-1.21,2,2,0,0,0-.31-1.2,1,1,0,0,0-.9-.42h-.81Z"/><path class="cls-1" d="M50.1,71.45a3.44,3.44,0,0,1,0-3.94,2.63,2.63,0,0,1,3.53,0,3.44,3.44,0,0,1,0,3.94,2.63,2.63,0,0,1-3.53,0Zm.86-.72a1.17,1.17,0,0,0,1.81,0,2.16,2.16,0,0,0,.3-1.25,2.18,2.18,0,0,0-.3-1.25,1.19,1.19,0,0,0-1.81,0,2.18,2.18,0,0,0-.3,1.25A2.16,2.16,0,0,0,51,70.73Z"/><path class="cls-1" d="M56.23,71.48a.79.79,0,0,1,.17-.41c.11-.17.21-.25.29-.25a.68.68,0,0,1,.19.08,1.77,1.77,0,0,0,.9.26c.47,0,.7-.18.7-.54a.47.47,0,0,0-.22-.4,2.28,2.28,0,0,0-.54-.28l-.63-.28a1.33,1.33,0,0,1-.53-.5,1.45,1.45,0,0,1-.23-.83,1.4,1.4,0,0,1,.27-.86,1.74,1.74,0,0,1,1.49-.64A2.39,2.39,0,0,1,59,67q.39.17.39.36a.87.87,0,0,1-.14.4Q59.16,68,59,68l-.13,0a1.67,1.67,0,0,0-.69-.13.82.82,0,0,0-.54.13.43.43,0,0,0-.15.34.42.42,0,0,0,.22.35,2.27,2.27,0,0,0,.54.27c.2.08.41.18.62.28a1.48,1.48,0,0,1,.54.49,1.39,1.39,0,0,1,.22.8,1.89,1.89,0,0,1-.14.79,1.32,1.32,0,0,1-.4.52,2,2,0,0,1-1.2.35,3,3,0,0,1-1.2-.21C56.39,71.78,56.23,71.63,56.23,71.48Z"/><path class="cls-1" d="M65,71.85V67.11c0-.16.16-.24.45-.24h.26q.45,0,.45.24v4.74c0,.17-.15.25-.45.25h-.26C65.16,72.1,65,72,65,71.85Z"/><path class="cls-1" d="M68.63,71.85V67.11q0-.24.45-.24h.32a.55.55,0,0,1,.49.2l2,3v-3q0-.24.45-.24h.21q.45,0,.45.24v4.74q0,.24-.45.24h-.28a.55.55,0,0,1-.49-.2l-2-3v3q0,.24-.45.24h-.21Q68.63,72.09,68.63,71.85Z"/><path class="cls-1" d="M75.46,71.85V67.19a.27.27,0,0,1,.3-.3h2.48c.15,0,.22.12.22.37v.23c0,.25-.07.37-.22.37H76.61v1.08h1.58c.15,0,.22.12.22.37v.23c0,.25-.07.37-.22.37H76.61v1.94q0,.24-.45.24h-.25Q75.46,72.09,75.46,71.85Z"/><path class="cls-1" d="M80.17,71.92a.87.87,0,0,1,0-.13L81.84,67c0-.11.18-.16.42-.16h.39c.24,0,.38,0,.42.16l1.64,4.76a.83.83,0,0,1,0,.13c0,.11-.13.17-.37.17H84c-.24,0-.38,0-.42-.16l-.29-.9H81.56l-.29.9c0,.11-.15.16-.35.16h-.29C80.32,72.09,80.17,72,80.17,71.92Zm1.71-1.87H83l-.43-1.32-.11-.47h0a3,3,0,0,1-.11.47Z"/><path class="cls-1" d="M86.73,71.85V67.11c0-.16.15-.24.44-.24h.32a.54.54,0,0,1,.49.2l2,3v-3c0-.16.15-.24.44-.24h.22c.29,0,.45.08.45.24v4.74c0,.16-.16.24-.45.24h-.28a.54.54,0,0,1-.49-.2l-2-3v3c0,.16-.14.24-.44.24h-.22C86.88,72.09,86.73,72,86.73,71.85Z"/><path class="cls-1" d="M94.51,71.85v-4H93.33c-.15,0-.23-.12-.23-.37v-.23c0-.25.08-.37.23-.37h3.51c.15,0,.23.12.23.37v.23c0,.25-.08.37-.23.37H95.66v4q0,.24-.45.24H95C94.66,72.09,94.51,72,94.51,71.85Z"/><path class="cls-1" d="M99.08,71.85V67.11c0-.16.15-.24.44-.24h.26q.45,0,.45.24v4.74c0,.17-.15.25-.45.25h-.26C99.23,72.1,99.08,72,99.08,71.85Z"/><path class="cls-1" d="M102.35,71.48a.74.74,0,0,1,.18-.41c.11-.17.21-.25.29-.25a.68.68,0,0,1,.19.08,1.77,1.77,0,0,0,.9.26c.47,0,.7-.18.7-.54a.49.49,0,0,0-.23-.4,2.28,2.28,0,0,0-.54-.28l-.62-.28a1.42,1.42,0,0,1-.54-.5,1.45,1.45,0,0,1-.22-.83,1.4,1.4,0,0,1,.27-.86,1.74,1.74,0,0,1,1.49-.64,2.42,2.42,0,0,1,1,.16q.39.17.39.36a.87.87,0,0,1-.14.4q-.15.24-.27.24l-.13,0a1.67,1.67,0,0,0-.69-.13.82.82,0,0,0-.54.13.41.41,0,0,0-.16.34.44.44,0,0,0,.23.35,2,2,0,0,0,.53.27c.21.08.42.18.63.28a1.48,1.48,0,0,1,.54.49,1.39,1.39,0,0,1,.22.8,2.07,2.07,0,0,1-.14.79,1.32,1.32,0,0,1-.4.52,2,2,0,0,1-1.21.35,3,3,0,0,1-1.19-.21C102.52,71.78,102.35,71.63,102.35,71.48Z"/><path class="cls-2" d="M110.8,38.71c-.25,0-.49,0-.73,0l6.72-6.69a8.45,8.45,0,0,0,1.08-10.64,8.69,8.69,0,0,0-.84-1.08l0,0-.16-.16-.06-.06-.14-.15h0a23.3,23.3,0,0,0-16.42-6.69h0a23.35,23.35,0,0,0-16.58,6.84c-.3.3-.58.61-.86.92a8.5,8.5,0,0,0-11-7.39V8.46a8.48,8.48,0,0,0-16.95,0v8a23.38,23.38,0,0,0-7.19-2.78c-.36-.08-.76-.15-1.16-.2a23.24,23.24,0,0,0-3.33-.27,8.39,8.39,0,0,0,1.49-4.78A8.47,8.47,0,0,0,36.2,0H8.48a8.46,8.46,0,1,0,0,16.92h5.38V51.54a8.47,8.47,0,0,0,15.77,4.29A23.42,23.42,0,0,0,56.12,56a8.48,8.48,0,0,0,15.7-4.42V45.43a10.35,10.35,0,0,1,2,6.11A8.47,8.47,0,0,0,88.75,57a23.52,23.52,0,0,0,28-3.86,8.47,8.47,0,0,0-6-14.45ZM49.43,37.25v0c0,.06,0,.11,0,.17h0v.06c0,.14,0,.28-.06.36a.24.24,0,0,1,0,.09l0,.15v0a2.7,2.7,0,0,1-.08.31,1.09,1.09,0,0,1,0,.14l0,.1,0,.06c0,.09-.07.19-.11.29a1.47,1.47,0,0,1-.06.14l0,.09,0,0c0,.09-.08.18-.13.27l-.12.21,0,0-.17.27-.15.23h0c-.06.09-.13.17-.2.26l-.17.21-.23.25-.19.19-.25.23-.2.17-.26.19h0L46.5,42a2.4,2.4,0,0,1-.27.16l-.09.06-.15.09-.3.14-.16.07-.1.05-.25.09-.09,0-.14.05-.09,0-.33.09h-.1l-.15,0h-.05l-.58.09c-.23,0-.46,0-.69,0s-.45,0-.67,0-.39,0-.59-.09h-.05l-.16,0-.08,0-.33-.08h0l0,0-.17-.06-.08,0-.25-.09-.13-.06-.12,0-.31-.15-.2-.12h0L39.4,42l-.18-.13,0,0-.27-.2-.19-.16h0v0a2.29,2.29,0,0,1-.23-.21l-.2-.19-.22-.25-.19-.22-.19-.26-.15-.22c-.06-.08-.11-.17-.18-.28h0v0l-.12-.21c-.06-.11-.1-.21-.15-.32l0-.08c0-.05-.05-.1-.07-.16s-.08-.2-.12-.31l0-.13a.56.56,0,0,1,0-.12h0a2.75,2.75,0,0,1-.07-.3l0-.05a1.24,1.24,0,0,0,0-.16.29.29,0,0,0,0-.09c0-.08,0-.2-.05-.33v-.09l0-.16v0h0q0-.31,0-.63a6.5,6.5,0,0,1,13,0Q49.46,36.94,49.43,37.25Z"/><path class="cls-2" d="M100,27.61a.9.9,0,0,0-.65-.26,9.22,9.22,0,0,0-8.48,8.39v0a.87.87,0,0,0,.26.69.91.91,0,0,0,1.29,0L100,28.9A.91.91,0,0,0,100,27.61Z"/><path class="cls-2" d="M43,27.28a9.37,9.37,0,0,0-9.37,9.34c0,.31,0,.62,0,.93,0,.1,0,.2,0,.3s0,.4.09.59l.09.35c0,.18.08.36.13.53l.12.35.18.48c.05.12.11.23.16.35s.14.3.22.45l.19.34c.08.14.16.28.25.41l.22.33.29.38.25.3c.11.13.22.24.33.36l.27.28.36.32.3.25.39.29.32.22.42.26.34.19c.14.08.3.15.45.22l.34.15.5.19.34.11a5.47,5.47,0,0,0,.58.15l.29.08a8.86,8.86,0,0,0,.9.13c.31,0,.64.05,1,.05s.66,0,1-.05a8.7,8.7,0,0,0,.87-.13l.3-.08a4.74,4.74,0,0,0,.57-.15,2.42,2.42,0,0,0,.35-.12,4.84,4.84,0,0,0,.49-.18c.12,0,.23-.1.35-.15l.45-.22.34-.19.41-.25.33-.23.38-.29a2.48,2.48,0,0,0,.3-.25l.36-.32c.09-.1.19-.19.28-.28l.32-.36.25-.3c.1-.13.2-.25.29-.38l.23-.33.25-.41.19-.34.22-.45.15-.35c.07-.16.12-.32.18-.48s.09-.23.12-.35.1-.35.14-.53a3.59,3.59,0,0,0,.08-.35,5.77,5.77,0,0,0,.09-.6,2.93,2.93,0,0,0,0-.29c0-.31,0-.62,0-.93A9.36,9.36,0,0,0,43,27.28Zm6.47,10v0c0,.06,0,.11,0,.17h0v.06c0,.14,0,.28-.06.36a.24.24,0,0,1,0,.09l0,.15v0a2.7,2.7,0,0,1-.08.31,1.09,1.09,0,0,1,0,.14l0,.1,0,.06c0,.09-.07.19-.11.29a1.47,1.47,0,0,1-.06.14l0,.09,0,0c0,.09-.08.18-.13.27l-.12.21,0,0-.17.27-.15.23h0c-.06.09-.13.17-.2.26l-.17.21-.23.25-.19.19-.25.23-.2.17-.26.19h0L46.5,42a2.4,2.4,0,0,1-.27.16l-.09.06-.15.09-.3.14-.16.07-.1.05-.25.09-.09,0-.14.05-.09,0-.33.09h-.1l-.15,0h-.05l-.58.09c-.23,0-.46,0-.69,0s-.45,0-.67,0-.39,0-.59-.09h-.05l-.16,0-.08,0-.33-.08h0l0,0-.17-.06-.08,0-.25-.09-.13-.06-.12,0-.31-.15-.2-.12h0L39.4,42l-.18-.13,0,0-.27-.2-.19-.16h0v0a2.29,2.29,0,0,1-.23-.21l-.2-.19-.22-.25-.19-.22-.19-.26-.15-.22c-.06-.08-.11-.17-.18-.28h0v0l-.12-.21c-.06-.11-.1-.21-.15-.32l0-.08c0-.05-.05-.1-.07-.16s-.08-.2-.12-.31l0-.13a.56.56,0,0,1,0-.12h0a2.75,2.75,0,0,1-.07-.3l0-.05a1.24,1.24,0,0,0,0-.16.29.29,0,0,0,0-.09c0-.08,0-.2-.05-.33v-.09l0-.16v0h0q0-.31,0-.63a6.5,6.5,0,0,1,13,0Q49.46,36.94,49.43,37.25Z"/><path class="cls-3" d="M74.28,29.63l4-4a5.59,5.59,0,0,0-7.92-7.89l-1.43,1.42V8.46a5.6,5.6,0,0,0-11.2,0v10.6a23.43,23.43,0,0,1,.46,34.69,5.6,5.6,0,0,0,10.74-2.21V39.47A13.32,13.32,0,0,1,76.7,51.54a5.6,5.6,0,0,0,11.2,0A24.5,24.5,0,0,0,74.28,29.63Z"/><path class="cls-4" d="M100.21,57.13a20.49,20.49,0,0,0,14.55-6,5.59,5.59,0,0,0-7.93-7.89,9.62,9.62,0,0,1-5.84,2.7,1,1,0,0,1-.65-.26.92.92,0,0,1,0-1.29l.09-.06v0L114.76,30a5.58,5.58,0,0,0,.72-7,6.52,6.52,0,0,0-.72-.87l0,0a20.47,20.47,0,0,0-14.53-6h0A20.56,20.56,0,0,0,80.49,30.77,27.28,27.28,0,0,1,90,51.54a8.6,8.6,0,0,1-.42,2.65A20.49,20.49,0,0,0,100.21,57.13ZM93.58,30a8.89,8.89,0,0,1,5.8-2.66A.91.91,0,0,1,100,28.9l-7.57,7.55a.91.91,0,0,1-1.29,0,.87.87,0,0,1-.26-.69v0A8.92,8.92,0,0,1,93.58,30Z"/><path class="cls-5" d="M63.54,36.62A20.56,20.56,0,0,0,47.11,16.53q-.51-.11-1-.18A20.14,20.14,0,0,0,43,16.11a20.49,20.49,0,0,0-12.91,4.57V51.54a7.77,7.77,0,0,1-.06,1A20.56,20.56,0,0,0,63.54,36.62ZM36.2,43.07c-.11-.12-.22-.23-.33-.36l-.25-.3L35.33,42l-.22-.33c-.09-.13-.17-.27-.25-.41L34.67,41c-.08-.15-.15-.3-.22-.45s-.11-.23-.16-.35l-.18-.48L34,39.32c-.05-.17-.09-.35-.13-.53l-.09-.35c0-.19-.06-.39-.09-.59s0-.2,0-.3c0-.31,0-.62,0-.93a9.37,9.37,0,0,1,18.74,0c0,.31,0,.62,0,.93a2.93,2.93,0,0,1,0,.29,5.77,5.77,0,0,1-.09.6,3.59,3.59,0,0,1-.08.35c0,.18-.09.35-.14.53s-.08.23-.12.35-.11.32-.18.48l-.15.35-.22.45-.19.34-.25.41-.23.33c-.09.13-.19.25-.29.38l-.25.3-.32.36c-.09.09-.19.18-.28.28l-.36.32a2.48,2.48,0,0,1-.3.25l-.38.29-.33.23-.41.25-.34.19-.45.22c-.12,0-.23.11-.35.15a4.84,4.84,0,0,1-.49.18,2.42,2.42,0,0,1-.35.12,4.74,4.74,0,0,1-.57.15l-.3.08a8.7,8.7,0,0,1-.87.13c-.33,0-.65.05-1,.05s-.65,0-1-.05a8.86,8.86,0,0,1-.9-.13l-.29-.08a5.47,5.47,0,0,1-.58-.15l-.34-.11-.5-.19-.34-.15c-.15-.07-.31-.14-.45-.22l-.34-.19-.42-.26-.32-.22-.39-.29-.3-.25-.36-.32Z"/><path class="cls-6" d="M41.8,8.46a5.59,5.59,0,0,0-5.6-5.58H8.48A5.58,5.58,0,1,0,8.48,14h8.25v37.5a5.6,5.6,0,0,0,11.2,0V14H36.2A5.59,5.59,0,0,0,41.8,8.46Z"/></g></g></svg>