<svg xmlns="http://www.w3.org/2000/svg" xmlns:xlink="http://www.w3.org/1999/xlink" fill="#6d6e71" width="26px" height="24px" class="fill-current"><path fill-rule="evenodd" d="M20.375,9.313 L26.000,9.313 L26.000,14.688 L20.375,14.688 L20.375,9.313 Z"></path> <path fill-rule="evenodd" d="M20.375,18.562 L26.000,18.562 L26.000,24.000 L20.375,24.000 L20.375,18.562 Z"></path> <path fill-rule="evenodd" d="M20.375,0.000 L26.000,0.000 L26.000,5.438 L20.375,5.438 L20.375,0.000 Z"></path> <path fill-rule="evenodd" d="M10.188,18.562 L15.781,18.562 L15.781,24.000 L10.188,24.000 L10.188,18.562 Z"></path> <path fill-rule="evenodd" d="M10.188,0.000 L15.781,0.000 L15.781,5.438 L10.188,5.438 L10.188,0.000 Z"></path> <path fill-rule="evenodd" d="M10.188,9.313 L15.781,9.313 L15.781,14.688 L10.188,14.688 L10.188,9.313 Z"></path> <path fill-rule="evenodd" d="M-0.000,9.313 L5.625,9.313 L5.625,14.688 L-0.000,14.688 L-0.000,9.313 Z"></path> <path fill-rule="evenodd" d="M-0.000,18.562 L5.625,18.562 L5.625,24.000 L-0.000,24.000 L-0.000,18.562 Z"></path> <path fill-rule="evenodd" d="M-0.000,0.000 L5.625,0.000 L5.625,5.438 L-0.000,5.438 L-0.000,0.000 Z"></path></svg>